# xmcd
#
# Track frame offsets:
#	150
#	15100
#	29012
#	41235
#	53240
#	66395
#	79672
#	89067
#	102292
#	119890
#	131472
#	148245
#	158700
#	169625
#	181170
#	192125
#	206065
#	219420
#
# Disc length: 3119 seconds
#
# Revision: 5
# Processed by: cddbd v1.5.2PL0 Copyright (c) Steve Scherf et al.
# Submitted via: EasyCDDAExtractor 12.0.4.1
#
DISCID=070c2d12
DTITLE=Glen Campbell - My Hits and Love Songs
DYEAR=1999
DGENRE=Country
TTITLE0=Your Cheating Heart
TTITLE1=Wichita Lineman
TTITLE2=By the Time I Get to Phoenix
TTITLE3=Galveston
TTITLE4=Where's the Playground Susie
TTITLE5=Gentle on My Mind
TTITLE6=Let it be Me
TTITLE7=Honey Come Back
TTITLE8=Last Thing on My Mind
TTITLE9=Dreams of the Everyday Housewife
TTITLE10=Both Sides Now
TTITLE11=Reason to Believe
TTITLE12=Try a Little Kindness
TTITLE13=All I Have to do is Dream
TTITLE14=It's Only Make Believe
TTITLE15=Country Boy
TTITLE16=Southern Nights
TTITLE17=Rhinestone Cowboy
EXTD=YEAR: 1999
EXTT0=
EXTT1=
EXTT2=
EXTT3=
EXTT4=
EXTT5=
EXTT6=
EXTT7=
EXTT8=
EXTT9=
EXTT10=
EXTT11=
EXTT12=
EXTT13=
EXTT14=
EXTT15=
EXTT16=
EXTT17=
PLAYORDER=
